<svg id="Capa_1" enable-background="new 0 0 511.97 511.97" height="100" viewBox="0 0 511.97 511.97" width="100" xmlns="http://www.w3.org/2000/svg"><g><g><path d="m444.571 497.329c-81.714 8.649-163.428 8.649-245.141 0-29.311-3.102-52.144-26.819-54.021-56.234-7.877-123.406-7.877-246.813 0-370.22 1.878-29.415 24.71-53.131 54.021-56.234 81.714-8.649 163.428-8.649 245.141 0 29.311 3.102 52.143 26.819 54.021 56.234 7.877 123.406 7.877 246.813 0 370.22-1.877 29.415-24.71 53.131-54.021 56.234z" fill="#365e7d"/><path d="m190.866 495.797c-25.092-6.363-43.772-28.224-45.457-54.702-7.879-123.406-7.879-246.813 0-370.219 1.686-26.478 20.365-48.339 45.457-54.702-15.199 10.651-25.401 27.815-26.658 47.422-8.188 128.263-8.188 256.517 0 384.78 1.256 19.606 11.459 36.77 26.658 47.421z" fill="#2b4d66"/><path d="m468.269 409.311c-1.556 24.364-20.465 44.011-44.739 46.584-67.687 7.161-135.374 7.161-203.051 0-24.284-2.573-43.193-22.22-44.749-46.584-6.522-102.214-6.522-204.437 0-306.651 1.556-24.364 20.465-44.011 44.749-46.584 7.919-.838 15.827-1.576 23.746-2.214 2.743 10.721 11.908 18.869 23.257 20.076 36.342 3.84 72.693 3.84 109.035 0 11.349-1.207 20.515-9.355 23.257-20.076 7.919.638 15.837 1.376 23.756 2.214 24.274 2.573 43.183 22.22 44.739 46.584 6.532 102.213 6.532 204.437 0 306.651z" fill="#f9f6f9"/><g><circle cx="161.287" cy="337.392" fill="#e7a561" r="36.665"/><path d="m157.109 373.818c-4.087-.463-8.162-1.629-12.052-3.549-18.158-8.964-25.611-30.948-16.648-49.107 8.964-18.158 30.948-25.611 49.107-16.648 3.89 1.92 7.294 4.446 10.146 7.409-14.94-1.729-30.011 5.928-37.055 20.197-7.043 14.269-3.955 30.89 6.502 41.698z" fill="#e29375"/><path d="m222.946 367.829c44.921 22.175 79.703 34.112 105.597 40.381 36.608 8.863 62.629-35.056 37.374-63-.228-.253-.456-.502-.683-.749-9.264-10.089-11.985-24.59-6.685-37.22 6.095-14.524 10.36-27.332 13.339-38.312 10.901-40.186-5.068-83.019-39.923-105.797-3.788-2.475-6.159-3.672-6.159-3.672s-2.392-1.155-6.66-2.656c-39.279-13.817-82.992-.446-108.264 32.645-6.905 9.042-14.479 20.217-22.302 33.887-6.803 11.888-19.969 18.546-33.612 17.328-.334-.03-.671-.059-1.01-.086-37.541-3.055-56.582 44.31-27.284 67.981 20.723 16.743 51.351 37.095 96.272 59.27z" fill="#f6e266"/><path d="m325.806 159.453s-1.06-.498-3.086-.852c-18.678-3.351-46.458 19.746-68.675 56.768-6.067 10.124-13.031 22.393-20.741 37.054-6.702 12.746-15.711 22.152-23.07 24.339-.174.051-.364.107-.543.167-18.522 5.705-38.6 46.805-33.907 65.363-20.594-12.293-36.64-23.671-49.104-33.741-29.294-23.664-10.261-71.037 27.286-67.972.339.018.674.046 1.003.085 13.651 1.217 26.812-5.443 33.614-17.332 7.83-13.669 15.398-24.844 22.298-33.885 25.28-33.098 68.987-46.466 108.265-32.648 4.27 1.5 6.66 2.654 6.66 2.654z" fill="#ffd064"/></g><g fill="#f6e266"><path d="m74.695 214.325-1.015 1.758c-3.581 6.202-11.352 8.572-17.785 5.424l-19.786-9.683c-7.087-3.468-9.754-12.213-5.809-19.046l2.523-4.37c3.945-6.833 12.852-8.896 19.399-4.492l18.278 12.295c5.942 3.996 7.775 11.912 4.195 18.114z"/><path d="m56.721 279.375v2.031c0 7.161-5.545 13.1-12.69 13.59l-21.977 1.508c-7.872.54-14.554-5.7-14.554-13.59v-5.046c0-7.89 6.683-14.13 14.554-13.59l21.977 1.507c7.144.49 12.69 6.428 12.69 13.59z"/><path d="m73.679 344.696 1.015 1.758c3.581 6.202 1.748 14.118-4.195 18.114l-18.279 12.294c-6.547 4.403-15.454 2.341-19.399-4.492l-2.523-4.37c-3.945-6.833-1.278-15.578 5.809-19.046l19.786-9.683c6.434-3.147 14.206-.777 17.786 5.425z"/></g></g><g><path d="m506.078 70.401c-2.111-33.13-27.646-59.718-60.717-63.22-81.851-8.664-164.861-8.664-246.725 0-33.059 3.502-58.593 30.089-60.716 63.22-3.518 55.145-5.474 111.093-5.847 166.393-10.6 4.676-19.157 13.396-23.807 25.026-7.62 19.056-2.246 39.691 13.69 52.569.364.294.745.588 1.113.882-.486.842-.951 1.697-1.384 2.573-5.222 10.579-6.012 22.557-2.225 33.729 2.844 8.387 8.012 15.566 14.888 20.833.918 22.97 2.113 46.212 3.573 69.166 2.123 33.128 27.657 59.715 60.717 63.218 40.931 4.332 82.149 6.498 123.366 6.498s82.433-2.166 123.359-6.498c33.069-3.502 58.604-30.09 60.716-63.22 7.856-123.145 7.856-248.024-.001-371.169zm-370.949 254.097c14.329 10.5 30.641 20.937 48.839 31.233-3.434 4.265-8.005 7.483-13.316 9.283-7.376 2.501-15.288 1.979-22.274-1.469s-12.21-9.411-14.711-16.788c-2.5-7.373-1.98-15.277 1.462-22.259zm355.98 116.117c-1.646 25.812-21.55 46.528-47.326 49.258-80.806 8.552-162.753 8.552-243.567 0-25.769-2.73-45.672-23.447-47.326-49.257-1.28-20.108-2.348-40.438-3.212-60.614 3.787 1.04 7.671 1.579 11.57 1.579 1.783 0 3.568-.11 5.348-.329.506 9.771 1.058 19.335 1.648 28.532 1.797 28.064 23.427 50.593 51.436 53.569 33.945 3.591 68.128 5.387 102.313 5.387s68.371-1.796 102.317-5.387c28.012-2.975 49.646-25.504 51.442-53.57 6.521-102.053 6.521-205.543.001-307.593-.462-7.29-2.27-14.318-5.374-20.889-1.77-3.746-6.237-5.347-9.984-3.579-3.745 1.769-5.348 6.24-3.578 9.985 2.29 4.85 3.625 10.041 3.967 15.435 6.479 101.418 6.479 204.265 0 305.683-1.328 20.751-17.334 37.41-38.055 39.61-66.845 7.072-134.629 7.072-201.468 0-20.718-2.201-36.72-18.86-38.048-39.612-.662-10.31-1.275-21.086-1.828-32.099 6.339-3.222 11.75-7.9 15.859-13.688 7.202 3.86 14.657 7.697 22.377 11.507 3.459 1.713 6.873 3.355 9.459 4.593 3.735 1.789 8.214.21 10.004-3.525 1.789-3.736.21-8.215-3.525-10.004-2.545-1.219-5.9-2.832-9.29-4.511-38.595-19.048-70.519-38.689-94.886-58.378-12.994-10.501-13.267-25.137-9.19-35.333 4.094-10.24 14.434-20.698 31.106-19.343l1.002.089c16.604 1.485 32.616-6.788 40.788-21.076 6.892-12.048 14.211-23.174 21.75-33.062 23.488-30.756 63.604-42.86 99.819-30.118 3.393 1.195 5.472 2.145 5.83 2.312.367.191 2.368 1.254 5.368 3.222 32.139 21.002 46.925 60.203 36.794 97.548-3.229 11.901-7.609 24.479-13.018 37.382-6.367 15.174-3.199 32.914 8.071 45.193.034.038.069.075.104.112.162.169.325.346.546.595 11.252 12.45 9.234 27.012 3.596 36.488-5.616 9.437-17.403 18.118-33.649 14.183-20.488-4.952-43.303-12.739-67.812-23.144-3.809-1.617-8.215.159-9.834 3.973-1.619 3.813.16 8.216 3.973 9.834 25.263 10.726 48.865 18.772 70.146 23.916 3.77.913 7.528 1.357 11.219 1.357 15.809 0 30.338-8.149 38.848-22.448 10.526-17.687 8.424-38.969-5.298-54.151-.277-.314-.555-.616-.832-.907-7.285-7.975-9.345-19.428-5.244-29.2 5.663-13.512 10.26-26.719 13.661-39.256 10.252-37.788-1.364-77.206-29.065-103.046 8.836-3.104 15.976-9.417 20.129-17.829 4.211-8.531 4.848-18.192 1.794-27.202-3.055-9.01-9.436-16.292-17.967-20.503s-18.191-4.849-27.202-1.794c-9.01 3.055-16.291 9.435-20.503 17.966-4.284 8.679-4.688 18.275-1.896 26.82-37.371-6.282-75.731 8.471-99.502 39.597-7.941 10.416-15.627 22.095-22.846 34.714-.997 1.744-2.179 3.348-3.51 4.797.527-40.411 2.083-81.134 4.655-121.264 1.328-20.751 17.33-37.41 38.045-39.611 6.021-.638 12.018-1.215 17.892-1.722 5.065 10.71 15.484 18.307 27.541 19.582 36.7 3.878 73.917 3.878 110.615 0 12.057-1.275 22.477-8.872 27.541-19.582 5.903.51 11.895 1.086 17.882 1.722 5.988.634 11.659 2.479 16.854 5.484 3.586 2.074 8.174.848 10.247-2.737 2.074-3.586.849-8.174-2.737-10.248-7.026-4.064-14.692-6.56-22.783-7.416-8.039-.854-16.092-1.604-23.936-2.229-3.629-.29-6.953 2.078-7.86 5.611-2.005 7.81-8.75 13.627-16.784 14.477-35.654 3.768-71.809 3.768-107.463 0-8.033-.844-14.778-6.661-16.784-14.471-.907-3.533-4.223-5.9-7.86-5.611-7.788.62-15.844 1.37-23.947 2.229-28.005 2.976-49.636 25.505-51.433 53.568-2.77 43.225-4.365 87.132-4.775 130.607-2.541.492-5.177.64-7.84.402l-1.062-.094c-2.527-.206-5.019-.212-7.461-.033.434-53.77 2.365-108.12 5.784-161.709 1.654-25.813 21.558-46.53 47.326-49.26 80.813-8.553 162.762-8.553 243.566 0 25.777 2.73 45.682 23.446 47.327 49.258 7.816 122.51 7.816 246.747 0 369.258zm-161.983-287.879c-10.194-5.032-14.395-17.421-9.361-27.615 2.438-4.938 6.652-8.632 11.868-10.4 2.172-.737 4.409-1.102 6.638-1.102 3.122 0 6.227.718 9.108 2.141 4.938 2.438 8.632 6.653 10.4 11.868 1.768 5.216 1.399 10.808-1.039 15.746s-6.652 8.632-11.868 10.4c-5.217 1.768-10.809 1.4-15.746-1.038z"/><path d="m358.812 34.565h-73.625c-4.143 0-7.5 3.358-7.5 7.5s3.357 7.5 7.5 7.5h73.625c4.143 0 7.5-3.358 7.5-7.5s-3.357-7.5-7.5-7.5z"/><path d="m74.686 189.987-18.278-12.294c-4.839-3.254-10.872-4.367-16.554-3.051-5.681 1.316-10.611 4.967-13.526 10.016l-2.523 4.37c-2.916 5.05-3.612 11.146-1.911 16.724 1.701 5.577 5.681 10.246 10.918 12.809l19.786 9.683c2.96 1.448 6.114 2.137 9.229 2.137 7.339 0 14.466-3.824 18.348-10.547l1.016-1.759v-.001c5.529-9.577 2.672-21.914-6.505-28.087zm-6.486 20.588-1.016 1.759c-1.603 2.776-5.116 3.846-7.993 2.438l-19.786-9.683c-1.54-.754-2.664-2.073-3.165-3.713-.5-1.641-.304-3.362.554-4.847l2.523-4.37c.857-1.485 2.25-2.516 3.92-2.903.467-.108.936-.162 1.4-.162 1.2 0 2.372.356 3.398 1.046l18.278 12.294c2.661 1.789 3.489 5.365 1.887 8.141z"/><path d="m22.567 303.985 21.977-1.508c11.034-.757 19.677-10.013 19.677-21.073v-2.031c0-11.059-8.643-20.315-19.677-21.073l-21.977-1.507c-5.813-.4-11.599 1.654-15.861 5.634-4.262 3.982-6.706 9.609-6.706 15.44v5.045c0 5.831 2.444 11.458 6.707 15.438 3.913 3.653 9.104 5.683 14.43 5.683.475.001.953-.015 1.43-.048zm-5.623-16.598c-1.253-1.17-1.944-2.76-1.944-4.475v-5.045c0-1.715.69-3.304 1.944-4.475 1.147-1.072 2.612-1.648 4.164-1.648.144 0 .288.005.433.015l21.977 1.507c3.198.219 5.703 2.902 5.703 6.108v2.031c0 3.206-2.505 5.888-5.703 6.108l-21.977 1.508c-1.709.12-3.343-.463-4.597-1.634z"/><path d="m80.174 340.945c-5.53-9.577-17.644-13.271-27.576-8.41l-19.785 9.683c-5.238 2.563-9.218 7.232-10.919 12.81-1.702 5.578-1.005 11.673 1.911 16.724l2.523 4.369c2.916 5.05 7.846 8.701 13.526 10.017 1.565.363 3.156.541 4.742.541 4.172 0 8.306-1.233 11.812-3.591l18.278-12.294c9.177-6.172 12.034-18.51 6.504-28.089zm-13.86 17.401-18.278 12.294c-1.424.957-3.127 1.271-4.798.884-1.67-.387-3.063-1.418-3.92-2.903l-2.523-4.369c-.857-1.485-1.054-3.207-.554-4.847s1.625-2.959 3.165-3.713l19.786-9.683c.858-.42 1.771-.619 2.675-.619 2.127 0 4.192 1.108 5.318 3.057v.001l1.015 1.757c1.602 2.776.774 6.352-1.886 8.141z"/></g></g></svg>